<?xml version="1.0" encoding="UTF-8"?>
<!-- Generated by Pixelmator Pro 3.4.3 -->
<svg width="72" height="72" viewBox="0 0 72 72" xmlns="http://www.w3.org/2000/svg">
    <g id="mute-off-key">
        <path id="Path" fill="#ffffff" fill-rule="evenodd" stroke="none" d="M 19 30.455547 L 19 43.513206 L 26.21875 43.513206 L 33.953125 52.453125 L 37.046875 52.453125 L 37.046875 21.000004 L 33.953125 21.000004 L 26.21875 30.455547 L 19 30.455547 Z"/>
        <path id="path1" fill="none" stroke="#ffffff" stroke-width="1.546875" d="M 39.625 32.859375 C 41.432602 34.088627 43.125774 35.3619 43.225079 36.616074 C 43.436096 39.281189 39.985008 41.625 39.985008 41.625"/>
        <path id="Path-copy" fill="none" stroke="#ffffff" stroke-width="1.546875" d="M 45.296875 27.1875 C 48.653847 30.007545 51.798309 32.928589 51.982735 35.805805 C 52.374626 41.919891 45.965462 47.296875 45.965462 47.296875"/>
        <path id="Path-copy-2" fill="none" stroke="#ffffff" stroke-width="1.546875" d="M 42.203125 29.765625 C 45.04364 31.862583 47.704338 34.034637 47.86039 36.17411 C 48.19199 40.720482 42.768852 44.71875 42.768852 44.71875"/>
    </g>
    <g id="mute-on-action2x"/>
    <g id="mute-on-action"/>
</svg>
